Coordinates
version=1
nRows=14
nColumns=40
inDegrees=yes

Units are S.I. units (second, meters, Newtons, ...)
Angles are in degrees.

endheader
time	pelvis_tilt	pelvis_list	pelvis_rotation	pelvis_tx	pelvis_ty	pelvis_tz	hip_flexion_r	hip_adduction_r	hip_rotation_r	knee_angle_r	knee_angle_r_beta	ankle_angle_r	subtalar_angle_r	mtp_angle_r	hip_flexion_l	hip_adduction_l	hip_rotation_l	knee_angle_l	knee_angle_l_beta	ankle_angle_l	subtalar_angle_l	mtp_angle_l	lumbar_extension	lumbar_bending	lumbar_rotation	arm_flex_r	arm_add_r	arm_rot_r	elbow_flex_r	pro_sup_r	wrist_flex_r	wrist_dev_r	arm_flex_l	arm_add_l	arm_rot_l	elbow_flex_l	pro_sup_l	wrist_flex_l	wrist_dev_l
     29.93000000	     -5.10403640	     -5.46290864	      3.72857674	      1.06710499	      0.92379994	      0.42733184	     16.60811071	     -4.95469499	     -6.76890743	     49.66462619	     49.66462619	      8.82992571	    -14.73716883	      0.10810335	     21.48215924	     -3.31144596	     -1.42494168	     27.92012763	     27.92012763	     15.05827069	    -11.72922240	      2.28984302	     -8.80573930	      4.59029665	      2.72654227	     34.90546178	    -12.08929769	     -0.77635699	     59.35914426	     45.33366963	      0.00000000	      0.00000000	      8.79157027	    -14.80554329	     23.50920117	     32.55496064	     45.10041475	      0.00000000	      0.00000000
     29.95278571	     -4.25454912	     -5.23407316	      3.41281319	      1.06783731	      0.92119899	      0.42384003	     18.13339394	     -5.53316574	     -5.77829826	     54.04845179	     54.04845179	      8.55312484	    -16.34060324	     -0.00169156	     21.02583312	     -2.84406758	     -1.13825093	     29.64559337	     29.64559337	     15.86274681	    -13.14142051	      1.97884114	     -9.31281228	      4.85590183	      2.48029610	     30.89809393	    -12.40307528	     -0.59165288	     56.54403566	     45.40680571	      0.00000000	      0.00000000	     10.68077782	    -14.60002183	     23.32071982	     33.09448409	     45.15775774	      0.00000000	      0.00000000
     29.97557143	     -3.40928949	     -5.09843091	      3.08717833	      1.06863007	      0.91856651	      0.42036637	     19.54161515	     -5.99182246	     -4.94779231	     57.88921424	     57.88921424	      8.72209902	    -17.41229873	      1.38744784	     20.56331415	     -2.37657330	     -0.61841641	     31.38228194	     31.38228194	     16.80902981	    -14.82086570	      2.27841562	     -9.73095695	      5.21663985	      2.73923239	     27.03756463	    -12.85870300	     -0.86245009	     51.41544128	     45.58421892	      0.00000000	      0.00000000	     13.02903127	    -14.11149869	     23.15915902	     33.30126140	     45.22648109	      0.00000000	      0.00000000
     29.99835714	     -2.71765175	     -4.92848829	      2.67732658	      1.06934154	      0.91587418	      0.41720539	     21.11037012	     -6.40264796	     -4.11900771	     61.23116884	     61.23116884	      9.78652063	    -17.89057491	      5.52071062	     20.21457734	     -1.95150768	     -0.44444708	     33.08195496	     33.08195496	     18.26831208	    -15.73412754	      3.53494096	     -9.97263368	      5.55846540	      2.27044366	     24.30960374	    -12.24960321	     -2.20739665	     44.23271837	     45.89036002	      0.00000000	      0.00000000	     15.04063943	    -13.84702932	     22.79467548	     33.01515055	     45.32717966	      0.00000000	      0.00000000
     30.02114286	     -2.07342663	     -4.78094268	      2.18189373	      1.06999874	      0.91346467	      0.41441251	     22.46511768	     -6.86691341	     -3.60684701	     63.45438735	     63.45438735	      9.80029634	    -18.40080497	      6.00184379	     19.75536800	     -1.61509514	     -0.48761892	     34.44423771	     34.44423771	     19.11782485	    -16.61044088	      3.50985454	    -10.34595149	      5.88619802	      2.56677639	     20.09457107	    -12.86448034	     -2.41124025	     41.03478951	     45.99404922	      0.00000000	      0.00000000	     16.98403431	    -13.65397909	     22.29322443	     34.34013219	     45.42734615	      0.00000000	      0.00000000
     30.04392857	     -1.47116203	     -4.67533880	      1.61504586	      1.07057426	      0.91188172	      0.41221659	     23.76804519	     -7.10305296	     -3.12884219	     64.84733067	     64.84733067	     10.91853220	    -18.57400447	      9.80349770	     19.17358363	     -1.34875051	     -0.57671114	     35.53582285	     35.53582285	     20.64277748	    -17.03325267	      5.53857337	    -10.70073703	      6.21851068	      2.25321503	     17.71128701	    -12.35335936	     -4.82678492	     34.07451554	     46.37042837	      0.00000000	      0.00000000	     18.53284945	    -13.66041507	     20.88945010	     35.58916280	     45.64032832	      0.00000000	      0.00000000
     30.06671429	     -1.05281971	     -4.58517393	      0.95041078	      1.07098115	      0.91084768	      0.41061400	     24.98317098	     -7.36318171	     -2.98015674	     65.03748706	     65.03748706	     11.05868157	    -18.79733448	      9.90282271	     18.52409762	     -1.20246540	     -0.94543231	     36.04204346	     36.04204346	     21.21723830	    -17.47417230	      5.55697793	    -11.00854443	      6.51620885	      2.54456612	     13.66684464	    -12.89512893	     -5.20039781	     31.53702152	     46.46404952	      0.00000000	      0.00000000	     20.27028273	    -13.61408379	     20.21428933	     37.16999787	     45.75260890	      0.00000000	      0.00000000
     30.08950000	     -0.74714200	     -4.51268554	      0.20394056	      1.07121833	      0.91073491	      0.40968896	     26.08611982	     -7.46459307	     -2.95901540	     64.19642175	     64.19642175	     11.30593364	    -18.89668313	     10.07519507	     17.75465582	     -1.13319361	     -1.44018267	     36.07881035	     36.07881035	     21.70283767	    -17.72174824	      5.80370573	    -11.24845370	      6.79928113	      2.78628080	      9.89191708	    -13.28947159	     -5.69860998	     29.00960324	     46.57184315	      0.00000000	      0.00000000	     21.85736671	    -13.70699405	     19.39261718	     38.96712572	     45.87670454	      0.00000000	      0.00000000
     30.11228571	     -0.66194172	     -4.47705629	     -0.57397066	      1.07113529	      0.91138905	      0.40946703	     27.13247929	     -7.37331783	     -3.08795392	     62.34002104	     62.34002104	     11.43584018	    -18.92681667	      9.60884392	     17.06420172	     -1.15090868	     -1.99626738	     35.76703796	     35.76703796	     22.29332279	    -17.73141334	      6.83324033	    -11.34422809	      7.07174660	      1.94460718	      7.71862216	    -12.72835456	    -10.27015699	     25.03166917	     47.05927464	      0.00000000	      0.00000000	     21.94761518	    -14.42869603	     15.66499659	     43.05117654	     46.28482443	      0.00000000	      0.00000000
     30.13507143	     -0.63403403	     -4.47824968	     -1.42919183	      1.07090445	      0.91294179	      0.41003015	     27.93082788	     -7.00725675	     -3.19556283	     59.59416644	     59.59416644	     11.55237199	    -18.81776084	      9.35747419	     16.15814379	     -1.29128791	     -2.72973071	     34.90381966	     34.90381966	     22.32139747	    -17.74194125	      6.92472513	    -11.44604001	      7.25379876	      2.18044983	      4.12225290	    -13.15889816	    -10.66175290	     23.47992747	     47.12538406	      0.00000000	      0.00000000	     23.52951389	    -14.68247443	     14.99526552	     44.77540527	     46.37870245	      0.00000000	      0.00000000
     30.15785714	     -1.05257565	     -4.40768468	     -2.22199989	      1.07012242	      0.91444042	      0.41117536	     28.92798386	     -6.57803460	     -3.34440963	     56.17983076	     56.17983076	     11.77904623	    -18.35046888	      9.42883965	     15.79862879	     -1.42820524	     -3.53147081	     34.04562988	     34.04562988	     22.19646225	    -17.54034262	      7.07939678	    -11.05533307	      7.32099265	      1.29018650	      1.31495773	    -13.33001163	    -10.83017180	     22.52701347	     47.15402107	      0.00000000	      0.00000000	     24.89071215	    -15.87994442	     14.47135926	     45.51722549	     46.44518224	      0.00000000	      0.00000000
     30.18064286	     -1.05954243	     -4.51394216	     -3.07785777	      1.06971136	      0.91735531	      0.41275358	     28.75192273	     -5.90490477	     -3.60332027	     51.46206546	     51.46206546	      9.55605879	    -18.21774205	      3.09226018	     14.42916300	     -1.70761361	     -4.34134625	     32.17835183	     32.17835183	     21.42411123	    -17.52852829	      5.82111697	    -11.42363389	      7.58551460	      1.51639880	     -2.56305790	    -13.47859675	    -13.57748728	     23.31478777	     47.31393814	      0.00000000	      0.00000000	     24.80345049	    -16.49341859	     11.68429886	     52.20469584	     46.74728751	      0.00000000	      0.00000000
     30.20342857	     -1.36275127	     -4.49726288	     -3.87873846	      1.06880535	      0.91989304	      0.41490000	     28.85310909	     -5.15869171	     -3.52010541	     46.87633169	     46.87633169	      9.03204239	    -17.10403212	      2.61759345	     13.56046014	     -1.91487703	     -5.21307821	     30.59303154	     30.59303154	     21.06074374	    -17.19400694	      5.90525797	    -11.33243320	      7.62015840	      1.65728331	     -5.61993832	    -13.70778493	    -14.02558071	     22.54364660	     47.35262124	      0.00000000	      0.00000000	     26.34049877	    -16.99539089	     10.88454517	     54.38544626	     46.85015275	      0.00000000	      0.00000000
     30.22621429	     -1.75194747	     -4.49299375	     -4.56884597	      1.06787504	      0.92207760	      0.41732110	     28.68721392	     -4.53465317	     -3.63212812	     41.98027989	     41.98027989	      7.63729406	    -15.41105551	     -0.08899425	     12.78708782	     -2.14224939	     -6.02351097	     28.96064343	     28.96064343	     20.28346193	    -16.88893533	      4.85185983	    -11.25223213	      7.67361498	      1.25072480	     -8.85522168	    -13.74835221	    -15.45526213	     24.13429717	     47.35050968	      0.00000000	      0.00000000	     26.83793500	    -18.12941500	      9.31156813	     58.90986295	     47.03519169	      0.00000000	      0.00000000
